<svg xmlns="http://www.w3.org/2000/svg" width="160" height="120" viewBox="0 0 160 120">
  <rect width="160" height="120" fill="#f0f8ff" rx="8"/>
  <!-- Chart background -->
  <rect x="10" y="10" width="140" height="100" fill="white" stroke="#ddd" stroke-width="1" rx="4"/>
  <!-- Title -->
  <text x="80" y="24" text-anchor="middle" font-size="9" fill="#2c3e50" font-family="Arial" font-weight="bold">EDA - Data Analysis</text>
  <!-- Axes -->
  <line x1="25" y1="30" x2="25" y2="95" stroke="#555" stroke-width="1.5"/>
  <line x1="25" y1="95" x2="145" y2="95" stroke="#555" stroke-width="1.5"/>
  <!-- Bar chart -->
  <rect x="32" y="72" width="14" height="23" fill="#3498db" opacity="0.8"/>
  <rect x="52" y="55" width="14" height="40" fill="#2ecc71" opacity="0.8"/>
  <rect x="72" y="62" width="14" height="33" fill="#e74c3c" opacity="0.8"/>
  <rect x="92" y="45" width="14" height="50" fill="#f39c12" opacity="0.8"/>
  <rect x="112" y="58" width="14" height="37" fill="#9b59b6" opacity="0.8"/>
  <!-- Trend line -->
  <polyline points="39,72 59,55 79,62 99,45 119,58" fill="none" stroke="#e74c3c" stroke-width="2" stroke-dasharray="4,2"/>
  <!-- Data points on trend line -->
  <circle cx="39" cy="72" r="3" fill="#e74c3c"/>
  <circle cx="59" cy="55" r="3" fill="#e74c3c"/>
  <circle cx="79" cy="62" r="3" fill="#e74c3c"/>
  <circle cx="99" cy="45" r="3" fill="#e74c3c"/>
  <circle cx="119" cy="58" r="3" fill="#e74c3c"/>
</svg>
